<svg viewBox="0 0 24 24" xmlns="http://www.w3.org/2000/svg" xmlns:xlink="http://www.w3.org/1999/xlink"><defs><linearGradient gradientUnits="userSpaceOnUse" id="b" x1="12" x2="12" y1="2.489" y2="22.692"><stop offset="0" stop-color="#fafeff" class="stop-color-fff650"></stop><stop offset="1" stop-color="#e4eff1" class="stop-color-ffab17"></stop></linearGradient><linearGradient gradientUnits="userSpaceOnUse" id="a" x1="12" x2="12" y1="12.766" y2="22.935"><stop offset="0" stop-color="#a1536c" class="stop-color-ff4867"></stop><stop offset="1" stop-color="#875045" class="stop-color-e50031"></stop></linearGradient><linearGradient id="c" x2="12" xlink:href="#a" y1="-.83" y2="10.006"></linearGradient></defs><path d="M21 7.55V21a2.006 2.006 0 0 1-2 2H5a2.006 2.006 0 0 1-2-2V7.55L12 1Z" fill="url(#b)" class="fillurl(-b)"></path><path d="M10 13h4a1 1 0 0 1 1 1v9H9v-9a1 1 0 0 1 1-1Z" fill="url(#a)" class="fillurl(-a)"></path><path d="M23 10a1 1 0 0 1-.587-.191L12 2.236 1.588 9.809A1 1 0 0 1 .412 8.191l11-8a1 1 0 0 1 1.176 0l11 8A1 1 0 0 1 23 10Z" fill="url(#c)" class="fillurl(-c)"></path></svg>