<?xml version="1.0" standalone="no"?>
<svg xmlns:xlink="http://www.w3.org/1999/xlink" id="wave" style="transform:rotate(0deg); transition: 0.3s" viewBox="0 0 1440 210" version="1.1" xmlns="http://www.w3.org/2000/svg"><defs><linearGradient id="sw-gradient-0" x1="0" x2="0" y1="1" y2="0"><stop stop-color="rgba(135, 80, 69, 1)" offset="0%"/><stop stop-color="rgba(228, 239, 241, 1)" offset="100%"/></linearGradient></defs><path style="transform:translate(0, 0px); opacity:1" fill="url(#sw-gradient-0)" d="M0,189L26.7,178.5C53.3,168,107,147,160,147C213.3,147,267,168,320,154C373.3,140,427,91,480,77C533.3,63,587,84,640,94.5C693.3,105,747,105,800,101.5C853.3,98,907,91,960,80.5C1013.3,70,1067,56,1120,59.5C1173.3,63,1227,84,1280,98C1333.3,112,1387,119,1440,105C1493.3,91,1547,56,1600,49C1653.3,42,1707,63,1760,59.5C1813.3,56,1867,28,1920,17.5C1973.3,7,2027,14,2080,31.5C2133.3,49,2187,77,2240,94.5C2293.3,112,2347,119,2400,105C2453.3,91,2507,56,2560,49C2613.3,42,2667,63,2720,84C2773.3,105,2827,126,2880,115.5C2933.3,105,2987,63,3040,45.5C3093.3,28,3147,35,3200,35C3253.3,35,3307,28,3360,28C3413.3,28,3467,35,3520,45.5C3573.3,56,3627,70,3680,91C3733.3,112,3787,140,3813,154L3840,168L3840,210L3813.3,210C3786.7,210,3733,210,3680,210C3626.7,210,3573,210,3520,210C3466.7,210,3413,210,3360,210C3306.7,210,3253,210,3200,210C3146.7,210,3093,210,3040,210C2986.7,210,2933,210,2880,210C2826.7,210,2773,210,2720,210C2666.7,210,2613,210,2560,210C2506.7,210,2453,210,2400,210C2346.7,210,2293,210,2240,210C2186.7,210,2133,210,2080,210C2026.7,210,1973,210,1920,210C1866.7,210,1813,210,1760,210C1706.7,210,1653,210,1600,210C1546.7,210,1493,210,1440,210C1386.7,210,1333,210,1280,210C1226.7,210,1173,210,1120,210C1066.7,210,1013,210,960,210C906.7,210,853,210,800,210C746.7,210,693,210,640,210C586.7,210,533,210,480,210C426.7,210,373,210,320,210C266.7,210,213,210,160,210C106.7,210,53,210,27,210L0,210Z"/><defs><linearGradient id="sw-gradient-1" x1="0" x2="0" y1="1" y2="0"><stop stop-color="rgba(27, 23, 14, 1)" offset="0%"/><stop stop-color="rgba(161, 83, 108, 1)" offset="100%"/></linearGradient></defs><path style="transform:translate(0, 50px); opacity:0.9" fill="url(#sw-gradient-1)" d="M0,105L26.7,101.5C53.3,98,107,91,160,80.5C213.3,70,267,56,320,56C373.3,56,427,70,480,73.5C533.3,77,587,70,640,84C693.3,98,747,133,800,126C853.3,119,907,70,960,56C1013.3,42,1067,63,1120,70C1173.3,77,1227,70,1280,77C1333.3,84,1387,105,1440,108.5C1493.3,112,1547,98,1600,80.5C1653.3,63,1707,42,1760,35C1813.3,28,1867,35,1920,31.5C1973.3,28,2027,14,2080,24.5C2133.3,35,2187,70,2240,73.5C2293.3,77,2347,49,2400,35C2453.3,21,2507,21,2560,42C2613.3,63,2667,105,2720,108.5C2773.3,112,2827,77,2880,56C2933.3,35,2987,28,3040,24.5C3093.3,21,3147,21,3200,31.5C3253.3,42,3307,63,3360,84C3413.3,105,3467,126,3520,126C3573.3,126,3627,105,3680,108.5C3733.3,112,3787,140,3813,154L3840,168L3840,210L3813.3,210C3786.7,210,3733,210,3680,210C3626.7,210,3573,210,3520,210C3466.7,210,3413,210,3360,210C3306.7,210,3253,210,3200,210C3146.7,210,3093,210,3040,210C2986.7,210,2933,210,2880,210C2826.7,210,2773,210,2720,210C2666.7,210,2613,210,2560,210C2506.7,210,2453,210,2400,210C2346.7,210,2293,210,2240,210C2186.7,210,2133,210,2080,210C2026.7,210,1973,210,1920,210C1866.7,210,1813,210,1760,210C1706.7,210,1653,210,1600,210C1546.7,210,1493,210,1440,210C1386.7,210,1333,210,1280,210C1226.7,210,1173,210,1120,210C1066.7,210,1013,210,960,210C906.7,210,853,210,800,210C746.7,210,693,210,640,210C586.7,210,533,210,480,210C426.7,210,373,210,320,210C266.7,210,213,210,160,210C106.7,210,53,210,27,210L0,210Z"/></svg>